<?xml version="1.0" encoding="UTF-8"?>
<svg width="902px" height="220px" viewBox="0 0 902 220" version="1.1" xmlns="http://www.w3.org/2000/svg" xmlns:xlink="http://www.w3.org/1999/xlink">
    <!-- Generator: Sketch 45 (43475) - http://www.bohemiancoding.com/sketch -->
    <title>rva-logo</title>
    <desc>Created with Sketch.</desc>
    <defs></defs>
    <g id="Page-1" stroke="none" stroke-width="1" fill="none" fill-rule="evenodd">
        <path d="M7.65429688,1.47460937 L154.566406,1.125 C162.031497,2.49223613 167.312421,3.6074705 170.40918,4.47070312 C175.054317,5.76555206 184.701255,9.53671401 188.548828,11.890625 C192.31362,14.1938911 197.002938,17.1128604 201.237305,22.0175781 C205.471671,26.9222958 212.381617,38.3343173 213.717773,42.796875 C216.068191,50.6469108 219.89194,69.5688557 212.711914,86.3759766 C207.92523,97.5807238 199.870868,106.995763 188.548828,114.621094 L236.644531,196.251953 C237.570446,200.595913 237.570446,203.429897 236.644531,204.753906 C235.718616,206.077915 233.418486,206.532993 229.744141,206.119141 L159.351562,206.541016 C158.227224,205.936755 157.401378,205.341052 156.874023,204.753906 C156.346669,204.16676 155.323557,202.70387 153.804688,200.365234 L121.746094,139.533203 C119.863348,137.374011 118.444402,135.945951 117.489258,135.249023 C116.534113,134.552095 115.048762,133.861015 113.033203,133.175781 L75.7402344,133.175781 L74.4199219,201.888672 C73.605325,204.104724 72.8930855,205.51488 72.2832031,206.119141 C71.6733208,206.723401 70.7612114,206.92262 69.546875,206.716797 L6.59179688,207.357422 C4.79979462,207.225419 3.66893525,206.953283 3.19921875,206.541016 C2.72950225,206.128748 2.19955434,204.943201 1.609375,202.984375 L1.1015625,7.953125 C1.86890221,5.34269974 2.56812096,3.72551224 3.19921875,3.1015625 C3.83031654,2.47761276 5.31534259,1.93529505 7.65429688,1.47460937 Z" id="Path" stroke="#979797" fill="#F8C051"></path>
        <path d="M74.453125,47.9921875 L74.3046875,86.5654297 L119.197266,86.9667969 C128.365445,85.0995247 134.289924,83.2632617 136.970703,81.4580078 C138.554035,80.3917815 140.780584,78.2992265 142.049805,76.1181641 C143.319025,73.9371016 144.64958,69.053275 144.664062,67.4794922 C144.690884,64.5647778 143.862566,57.7839769 135.901367,52.7919922 C130.593901,49.4640024 125.144682,47.9438201 119.553711,48.2314453 L74.453125,47.9921875 Z" id="Path-2" stroke="#979797" fill="#576D9C"></path>
        <path d="M188.180664,1.05273438 L242.790039,0.815429688 L306.230469,103.341797 L333.647461,58.1621094 L364.677734,5.43945313 L370.34082,0.678710938 L433.75,0.723632813 C434.503349,0.572680954 435.044364,0.682381475 435.373047,1.05273438 C435.701729,1.42308728 436.326404,2.62686332 437.24707,4.6640625 C437.291183,6.33140808 437.291183,7.55536642 437.24707,8.3359375 C437.202957,9.11650858 437.052567,10.5536831 436.795898,12.6474609 L329.964844,199.854492 C328.996173,201.807948 328.123452,203.222987 327.34668,204.099609 C326.569907,204.976231 325.399009,205.867507 323.833984,206.773437 L283.629883,206.80957 C282.492174,205.476557 281.709296,204.573236 281.28125,204.099609 C280.853204,203.625982 280.416355,203.179693 279.970703,202.760742 L219.643555,96.6865234 C223.207622,86.6410479 225.26296,79.4200192 225.80957,75.0234375 C226.629485,68.4285649 224.967844,48.3384529 222.664062,41.3359375 C220.52136,34.8230331 215.960266,24.9370141 206.936523,15.5839844 C200.920695,9.3486312 194.668742,4.5048812 188.180664,1.05273438 Z" id="Path-3" stroke="#F8C051" fill="#F8C051"></path>
        <path d="M456.308594,0.888671875 L510.079102,0.8203125 L512.566406,4.1953125 L614.384766,195.384766 C614.752953,199.060043 614.752953,201.484847 614.384766,202.65918 C614.016578,203.833512 612.7643,205.402848 610.62793,207.367187 L544.431641,207.418945 C542.772775,207.558037 541.652333,207.446709 541.070312,207.084961 C540.488292,206.723213 539.704438,205.650947 538.71875,203.868164 L525.118164,177.500977 L427.042969,177.520508 L413.325195,204.125 C412.608927,205.771682 411.971231,206.758336 411.412109,207.084961 C410.852987,207.411586 409.717571,207.460739 408.005859,207.232422 L348.188477,207.084961 C346.225481,206.75885 344.893124,206.321024 344.191406,205.771484 C343.489688,205.221945 342.938256,204.18451 342.537109,202.65918 L341.889648,197.401367 L371.09375,146.791992 L453.035156,3.34667969 L456.308594,0.888671875 Z" id="Path-4" stroke="#979797" fill="#F8C051"></path>
        <polygon id="Path-5" stroke="#979797" fill="#576D9C" points="476.385254 82.5976562 451.422852 131.611328 501.347656 131.611328"></polygon>
        <path d="M626.448,51.384 C622.650648,48.5466525 620.624001,44.1840294 620.368,38.296 C620.325333,37.1439942 620.304,35.2666797 620.304,32.664 C620.304,30.0186534 620.325333,28.0986726 620.368,26.904 C620.624001,21.1866381 622.693314,16.8666813 626.576,13.944 C630.458686,11.0213187 635.535969,9.56 641.808,9.56 C645.648019,9.56 649.178651,10.1359942 652.4,11.288 C655.621349,12.4400058 658.245323,14.2426544 660.272,16.696 C662.298677,19.1493456 663.333333,22.2319814 663.376,25.944 C663.376,26.3280019 663.237335,26.6586653 662.96,26.936 C662.682665,27.2133347 662.352002,27.352 661.968,27.352 L648.912,27.352 C648.22933,27.352 647.728002,27.2240013 647.408,26.968 C647.087998,26.7119987 646.800001,26.221337 646.544,25.496 C646.074664,24.2159936 645.456004,23.3200026 644.688,22.808 C643.919996,22.2959974 642.938673,22.04 641.744,22.04 C640.250659,22.04 639.098671,22.4346627 638.288,23.224 C637.477329,24.0133373 637.050667,25.3466573 637.008,27.224 C636.965333,28.3760058 636.944,30.1466547 636.944,32.536 C636.944,34.9253453 636.965333,36.7386605 637.008,37.976 C637.050667,39.8533427 637.477329,41.1866627 638.288,41.976 C639.098671,42.7653373 640.250659,43.16 641.744,43.16 C644.176012,43.16 645.775996,42.0080115 646.544,39.704 C646.757334,38.978663 647.023998,38.4880013 647.344,38.232 C647.664002,37.9759987 648.186663,37.848 648.912,37.848 L661.968,37.848 C662.352002,37.848 662.682665,37.9866653 662.96,38.264 C663.237335,38.5413347 663.376,38.8719981 663.376,39.256 C663.333333,42.9680186 662.298677,46.0506544 660.272,48.504 C658.245323,50.9573456 655.621349,52.7599942 652.4,53.912 C649.178651,55.0640058 645.648019,55.64 641.808,55.64 C635.365301,55.64 630.245352,54.2213475 626.448,51.384 Z M673.68,54.072 C671.802657,53.0266614 670.298672,51.4160109 669.168,49.24 C668.037328,47.0639891 667.472,44.3546829 667.472,41.112 L667.472,23.448 C667.472,22.9786643 667.642665,22.573335 667.984,22.232 C668.325335,21.890665 668.730664,21.72 669.2,21.72 L681.424,21.72 C681.893336,21.72 682.298665,21.890665 682.64,22.232 C682.981335,22.573335 683.152,22.9786643 683.152,23.448 L683.152,40.664 C683.152,41.8160058 683.429331,42.6906637 683.984,43.288 C684.538669,43.8853363 685.327995,44.184 686.352,44.184 C687.376005,44.184 688.165331,43.8853363 688.72,43.288 C689.274669,42.6906637 689.552,41.8160058 689.552,40.664 L689.552,23.448 C689.552,22.9786643 689.722665,22.573335 690.064,22.232 C690.405335,21.890665 690.810664,21.72 691.28,21.72 L703.44,21.72 C703.909336,21.72 704.314665,21.890665 704.656,22.232 C704.997335,22.573335 705.168,22.9786643 705.168,23.448 L705.168,53.272 C705.168,53.7413357 704.997335,54.146665 704.656,54.488 C704.314665,54.829335 703.909336,55 703.44,55 L692.24,55 C691.770664,55 691.365335,54.829335 691.024,54.488 C690.682665,54.146665 690.512,53.7413357 690.512,53.272 L690.512,51.16 C689.487995,52.6533408 688.058676,53.7733296 686.224,54.52 C684.389324,55.2666704 682.277345,55.64 679.888,55.64 C677.626655,55.64 675.557343,55.1173386 673.68,54.072 Z M711.44,54.488 C711.098665,54.146665 710.928,53.7413357 710.928,53.272 L710.928,11.288 C710.928,10.8186643 711.098665,10.413335 711.44,10.072 C711.781335,9.73066496 712.186664,9.56 712.656,9.56 L724.112,9.56 C724.581336,9.56 724.986665,9.73066496 725.328,10.072 C725.669335,10.413335 725.84,10.8186643 725.84,11.288 L725.84,53.272 C725.84,53.7413357 725.669335,54.146665 725.328,54.488 C724.986665,54.829335 724.581336,55 724.112,55 L712.656,55 C712.186664,55 711.781335,54.829335 711.44,54.488 Z M740.432,51.832 C737.615986,49.7199894 736.208,46.1893581 736.208,41.24 L736.208,32.92 L731.152,32.92 C730.682664,32.92 730.277335,32.749335 729.936,32.408 C729.594665,32.066665 729.424,31.6613357 729.424,31.192 L729.424,23.448 C729.424,22.9786643 729.594665,22.573335 729.936,22.232 C730.277335,21.890665 730.682664,21.72 731.152,21.72 L736.208,21.72 L736.208,11.288 C736.208,10.8186643 736.378665,10.413335 736.72,10.072 C737.061335,9.73066496 737.466664,9.56 737.936,9.56 L749.136,9.56 C749.605336,9.56 750.010665,9.73066496 750.352,10.072 C750.693335,10.413335 750.864,10.8186643 750.864,11.288 L750.864,21.72 L758.928,21.72 C759.397336,21.72 759.802665,21.890665 760.144,22.232 C760.485335,22.573335 760.656,22.9786643 760.656,23.448 L760.656,31.192 C760.656,31.6613357 760.485335,32.066665 760.144,32.408 C759.802665,32.749335 759.397336,32.92 758.928,32.92 L750.864,32.92 L750.864,39.96 C750.864,42.093344 751.781324,43.16 753.616,43.16 L759.44,43.16 C759.909336,43.16 760.314665,43.330665 760.656,43.672 C760.997335,44.013335 761.168,44.4186643 761.168,44.888 L761.168,53.272 C761.168,53.7413357 760.997335,54.146665 760.656,54.488 C760.314665,54.829335 759.909336,55 759.44,55 L752.208,55 C747.173308,55 743.248014,53.9440106 740.432,51.832 Z M771.536,54.072 C769.658657,53.0266614 768.154672,51.4160109 767.024,49.24 C765.893328,47.0639891 765.328,44.3546829 765.328,41.112 L765.328,23.448 C765.328,22.9786643 765.498665,22.573335 765.84,22.232 C766.181335,21.890665 766.586664,21.72 767.056,21.72 L779.28,21.72 C779.749336,21.72 780.154665,21.890665 780.496,22.232 C780.837335,22.573335 781.008,22.9786643 781.008,23.448 L781.008,40.664 C781.008,41.8160058 781.285331,42.6906637 781.84,43.288 C782.394669,43.8853363 783.183995,44.184 784.208,44.184 C785.232005,44.184 786.021331,43.8853363 786.576,43.288 C787.130669,42.6906637 787.408,41.8160058 787.408,40.664 L787.408,23.448 C787.408,22.9786643 787.578665,22.573335 787.92,22.232 C788.261335,21.890665 788.666664,21.72 789.136,21.72 L801.296,21.72 C801.765336,21.72 802.170665,21.890665 802.512,22.232 C802.853335,22.573335 803.024,22.9786643 803.024,23.448 L803.024,53.272 C803.024,53.7413357 802.853335,54.146665 802.512,54.488 C802.170665,54.829335 801.765336,55 801.296,55 L790.096,55 C789.626664,55 789.221335,54.829335 788.88,54.488 C788.538665,54.146665 788.368,53.7413357 788.368,53.272 L788.368,51.16 C787.343995,52.6533408 785.914676,53.7733296 784.08,54.52 C782.245324,55.2666704 780.133345,55.64 777.744,55.64 C775.482655,55.64 773.413343,55.1173386 771.536,54.072 Z M809.296,54.488 C808.954665,54.146665 808.784,53.7413357 808.784,53.272 L808.784,23.448 C808.784,22.9786643 808.954665,22.573335 809.296,22.232 C809.637335,21.890665 810.042664,21.72 810.512,21.72 L821.712,21.72 C822.181336,21.72 822.586665,21.890665 822.928,22.232 C823.269335,22.573335 823.44,22.9786643 823.44,23.448 L823.44,25.688 C824.848007,24.4506605 826.405325,23.4800035 828.112,22.776 C829.818675,22.0719965 831.589324,21.72 833.424,21.72 L836.496,21.72 C836.965336,21.72 837.370665,21.890665 837.712,22.232 C838.053335,22.573335 838.224,22.9786643 838.224,23.448 L838.224,33.432 C838.224,33.9013357 838.053335,34.306665 837.712,34.648 C837.370665,34.989335 836.965336,35.16 836.496,35.16 L828.24,35.16 C825.679987,35.16 824.4,36.4399872 824.4,39 L824.4,53.272 C824.4,53.7413357 824.229335,54.146665 823.888,54.488 C823.546665,54.829335 823.141336,55 822.672,55 L810.512,55 C810.042664,55 809.637335,54.829335 809.296,54.488 Z M845.648,51.384 C842.447984,48.5466525 840.848,44.2266957 840.848,38.424 L840.848,37.976 C840.933334,32.5573062 842.607984,28.3866813 845.872,25.464 C849.136016,22.5413187 853.541306,21.08 859.088,21.08 C863.098687,21.08 866.479986,21.8586589 869.232,23.416 C871.984014,24.9733411 874.021327,27.0639869 875.344,29.688 C876.666673,32.3120131 877.328,35.2453171 877.328,38.488 L877.328,40.408 C877.328,40.8773357 877.157335,41.282665 876.816,41.624 C876.474665,41.965335 876.069336,42.136 875.6,42.136 L856.528,42.136 L856.528,42.456 C856.528,43.7786733 856.719998,44.7599968 857.104,45.4 C857.488002,46.0400032 858.127996,46.36 859.024,46.36 C859.365335,46.36 859.642666,46.2853341 859.856,46.136 C860.069334,45.9866659 860.410664,45.6773357 860.88,45.208 C861.264002,44.8239981 861.583999,44.5786672 861.84,44.472 C862.096001,44.3653328 862.479997,44.312 862.992,44.312 L875.088,44.312 C875.472002,44.312 875.802665,44.4293322 876.08,44.664 C876.357335,44.8986678 876.496,45.2079981 876.496,45.592 C876.496,46.7866726 875.834673,48.183992 874.512,49.784 C873.189327,51.384008 871.216013,52.7599942 868.592,53.912 C865.967987,55.0640058 862.821352,55.64 859.152,55.64 C853.349304,55.64 848.848016,54.2213475 845.648,51.384 Z M861.648,34.136 L861.648,34.072 C861.648,31.3839866 860.794675,30.04 859.088,30.04 C857.381325,30.04 856.528,31.3839866 856.528,34.072 L856.528,34.136 L861.648,34.136 Z M624.88,128.152 C621.743984,125.826655 620.176,122.488022 620.176,118.136 C620.176,115.575987 620.869326,113.293343 622.256,111.288 C623.642674,109.282657 625.722653,107.512008 628.496,105.976 C625.978654,103.287987 624.72,100.450682 624.72,97.464 C624.72,95.2879891 625.274661,93.304009 626.384,91.512 C627.493339,89.719991 629.221322,88.2800054 631.568,87.192 C633.914678,86.1039946 636.837316,85.56 640.336,85.56 C643.450682,85.56 646.106656,86.1039946 648.304,87.192 C650.501344,88.2800054 652.154661,89.6986579 653.264,91.448 C654.373339,93.1973421 654.928,95.0959898 654.928,97.144 C654.928,99.4906784 654.256007,101.559991 652.912,103.352 C651.567993,105.144009 649.509347,106.850659 646.736,108.472 L651.536,113.464 C651.621334,113.378666 651.823998,113.133335 652.144,112.728 C652.464002,112.322665 652.847998,111.736004 653.296,110.968 C653.744002,110.199996 654.202664,109.282672 654.672,108.216 C654.757334,108.045332 654.906666,107.896001 655.12,107.768 C655.333334,107.639999 655.610665,107.576 655.952,107.576 L665.616,107.576 C665.957335,107.576 666.234666,107.682666 666.448,107.896 C666.661334,108.109334 666.768,108.386665 666.768,108.728 C666.768,109.96534 665.904009,111.906653 664.176,114.552 C662.447991,117.197347 660.773341,119.373325 659.152,121.08 L666.768,129.016 C667.024001,129.272001 667.152,129.570665 667.152,129.912 C667.152,130.210668 667.034668,130.466666 666.8,130.68 C666.565332,130.893334 666.298668,131 666,131 L652.944,131 C652.559998,131 652.261334,130.946667 652.048,130.84 C651.834666,130.733333 651.600001,130.573334 651.344,130.36 L649.616,128.824 C647.909325,129.933339 646.138676,130.679998 644.304,131.064 C642.469324,131.448002 640.336012,131.64 637.904,131.64 C632.357306,131.64 628.016016,130.477345 624.88,128.152 Z M642.64,97.656 C642.64,96.9733299 642.416002,96.4186688 641.968,95.992 C641.519998,95.5653312 640.95467,95.352 640.272,95.352 C639.631997,95.352 639.077336,95.5759978 638.608,96.024 C638.138664,96.4720022 637.904,97.0373299 637.904,97.72 C637.904,98.7013382 638.479994,99.725328 639.632,100.792 C641.637343,99.8959955 642.64,98.8506726 642.64,97.656 Z M641.744,120.184 L636.112,114.36 C635.557331,114.616001 635.088002,115.031997 634.704,115.608 C634.319998,116.184003 634.128,116.791997 634.128,117.432 C634.128,118.413338 634.522663,119.24533 635.312,119.928 C636.101337,120.61067 636.965329,120.952 637.904,120.952 C639.610675,120.952 640.890662,120.696003 641.744,120.184 Z M622.032,206.52 C621.690665,206.199998 621.52,205.784003 621.52,205.272 L621.52,163.928 C621.52,163.458664 621.690665,163.053335 622.032,162.712 C622.373335,162.370665 622.778664,162.2 623.248,162.2 L635.792,162.2 C636.261336,162.2 636.666665,162.370665 637.008,162.712 C637.349335,163.053335 637.52,163.458664 637.52,163.928 L637.52,177.368 L647.888,177.368 L647.888,163.928 C647.888,163.458664 648.058665,163.053335 648.4,162.712 C648.741335,162.370665 649.146664,162.2 649.616,162.2 L662.16,162.2 C662.629336,162.2 663.034665,162.370665 663.376,162.712 C663.717335,163.053335 663.888,163.458664 663.888,163.928 L663.888,205.272 C663.888,205.741336 663.717335,206.146665 663.376,206.488 C663.034665,206.829335 662.629336,207 662.16,207 L649.616,207 C649.146664,207 648.741335,206.829335 648.4,206.488 C648.058665,206.146665 647.888,205.741336 647.888,205.272 L647.888,191.448 L637.52,191.448 L637.52,205.272 C637.52,205.741336 637.349335,206.146665 637.008,206.488 C636.666665,206.829335 636.261336,207 635.792,207 L623.248,207 C622.778664,207 622.373335,206.840002 622.032,206.52 Z M671.12,169.688 C670.778665,169.346665 670.608,168.941336 670.608,168.472 L670.608,160.728 C670.608,160.258664 670.778665,159.853335 671.12,159.512 C671.461335,159.170665 671.866664,159 672.336,159 L683.152,159 C683.621336,159 684.026665,159.170665 684.368,159.512 C684.709335,159.853335 684.88,160.258664 684.88,160.728 L684.88,168.472 C684.88,168.941336 684.709335,169.346665 684.368,169.688 C684.026665,170.029335 683.621336,170.2 683.152,170.2 L672.336,170.2 C671.866664,170.2 671.461335,170.029335 671.12,169.688 Z M670.8,206.488 C670.458665,206.146665 670.288,205.741336 670.288,205.272 L670.288,175.448 C670.288,174.978664 670.458665,174.573335 670.8,174.232 C671.141335,173.890665 671.546664,173.72 672.016,173.72 L683.472,173.72 C683.941336,173.72 684.346665,173.890665 684.688,174.232 C685.029335,174.573335 685.2,174.978664 685.2,175.448 L685.2,205.272 C685.2,205.741336 685.029335,206.146665 684.688,206.488 C684.346665,206.829335 683.941336,207 683.472,207 L672.016,207 C671.546664,207 671.141335,206.829335 670.8,206.488 Z M696.976,206.136 C694.415987,205.133328 692.528006,203.906674 691.312,202.456 C690.095994,201.005326 689.488,199.640006 689.488,198.36 C689.488,197.933331 689.637332,197.560002 689.936,197.24 C690.234668,196.919998 690.597331,196.76 691.024,196.76 L702.416,196.76 C702.842669,196.802667 703.247998,196.941332 703.632,197.176 C704.016002,197.410668 704.271999,197.570666 704.4,197.656 C704.912003,197.997335 705.359998,198.253332 705.744,198.424 C706.128002,198.594668 706.554664,198.68 707.024,198.68 C707.408002,198.68 707.749332,198.594668 708.048,198.424 C708.346668,198.253332 708.496,198.018668 708.496,197.72 C708.496,197.293331 708.368001,196.930668 708.112,196.632 C707.855999,196.333332 707.248005,196.034668 706.288,195.736 C705.327995,195.437332 703.845343,195.096002 701.84,194.712 C698.42665,194.071997 695.621344,192.909342 693.424,191.224 C691.226656,189.538658 690.128,187.138682 690.128,184.024 C690.128,182.146657 690.757327,180.365342 692.016,178.68 C693.274673,176.994658 695.130654,175.640005 697.584,174.616 C700.037346,173.591995 702.949316,173.08 706.32,173.08 C709.648017,173.08 712.591987,173.581328 715.152,174.584 C717.712013,175.586672 719.67466,176.813326 721.04,178.264 C722.40534,179.714674 723.088,181.079994 723.088,182.36 C723.088,182.786669 722.938668,183.159998 722.64,183.48 C722.341332,183.800002 722.021335,183.96 721.68,183.96 L710.928,183.96 C710.543998,183.96 710.149335,183.864001 709.744,183.672 C709.338665,183.479999 708.965335,183.256001 708.624,183 C707.727996,182.359997 706.93867,182.04 706.256,182.04 C705.914665,182.04 705.616001,182.135999 705.36,182.328 C705.103999,182.520001 704.976,182.765332 704.976,183.064 C704.976,183.490669 705.114665,183.842665 705.392,184.12 C705.669335,184.397335 706.309328,184.685332 707.312,184.984 C708.314672,185.282668 709.882656,185.581332 712.016,185.88 C716.282688,186.520003 719.429323,187.853323 721.456,189.88 C723.482677,191.906677 724.496,194.157321 724.496,196.632 C724.496,200.088017 722.938682,202.786657 719.824,204.728 C716.709318,206.669343 712.293362,207.64 706.576,207.64 C702.735981,207.64 699.536013,207.138672 696.976,206.136 Z M737.296,203.832 C734.479986,201.719989 733.072,198.189358 733.072,193.24 L733.072,184.92 L728.016,184.92 C727.546664,184.92 727.141335,184.749335 726.8,184.408 C726.458665,184.066665 726.288,183.661336 726.288,183.192 L726.288,175.448 C726.288,174.978664 726.458665,174.573335 726.8,174.232 C727.141335,173.890665 727.546664,173.72 728.016,173.72 L733.072,173.72 L733.072,163.288 C733.072,162.818664 733.242665,162.413335 733.584,162.072 C733.925335,161.730665 734.330664,161.56 734.8,161.56 L746,161.56 C746.469336,161.56 746.874665,161.730665 747.216,162.072 C747.557335,162.413335 747.728,162.818664 747.728,163.288 L747.728,173.72 L755.792,173.72 C756.261336,173.72 756.666665,173.890665 757.008,174.232 C757.349335,174.573335 757.52,174.978664 757.52,175.448 L757.52,183.192 C757.52,183.661336 757.349335,184.066665 757.008,184.408 C756.666665,184.749335 756.261336,184.92 755.792,184.92 L747.728,184.92 L747.728,191.96 C747.728,194.093344 748.645324,195.16 750.48,195.16 L756.304,195.16 C756.773336,195.16 757.178665,195.330665 757.52,195.672 C757.861335,196.013335 758.032,196.418664 758.032,196.888 L758.032,205.272 C758.032,205.741336 757.861335,206.146665 757.52,206.488 C757.178665,206.829335 756.773336,207 756.304,207 L749.072,207 C744.037308,207 740.112014,205.944011 737.296,203.832 Z M761.616,193.368 C761.573333,192.727997 761.552,191.72534 761.552,190.36 C761.552,188.99466 761.573333,187.992003 761.616,187.352 C761.914668,182.70131 763.685317,179.160012 766.928,176.728 C770.170683,174.295988 774.586639,173.08 780.176,173.08 C785.765361,173.08 790.181317,174.295988 793.424,176.728 C796.666683,179.160012 798.437332,182.70131 798.736,187.352 C798.821334,188.632006 798.864,189.634663 798.864,190.36 C798.864,191.085337 798.821334,192.087994 798.736,193.368 C798.095997,202.882714 791.909392,207.64 780.176,207.64 C768.442608,207.64 762.256003,202.882714 761.616,193.368 Z M782.416,196.472 C782.757335,195.85333 782.970666,194.712008 783.056,193.048 C783.098667,192.621331 783.12,191.72534 783.12,190.36 C783.12,188.99466 783.098667,188.098669 783.056,187.672 C782.927999,186.050659 782.693335,184.920003 782.352,184.28 C782.010665,183.639997 781.285339,183.32 780.176,183.32 C779.066661,183.32 778.341335,183.639997 778,184.28 C777.658665,184.920003 777.424001,186.050659 777.296,187.672 L777.232,190.36 L777.296,193.048 C777.381334,194.712008 777.594665,195.85333 777.936,196.472 C778.277335,197.09067 779.023994,197.4 780.176,197.4 C781.328006,197.4 782.074665,197.09067 782.416,196.472 Z M804.112,206.488 C803.770665,206.146665 803.6,205.741336 803.6,205.272 L803.6,175.448 C803.6,174.978664 803.770665,174.573335 804.112,174.232 C804.453335,173.890665 804.858664,173.72 805.328,173.72 L816.528,173.72 C816.997336,173.72 817.402665,173.890665 817.744,174.232 C818.085335,174.573335 818.256,174.978664 818.256,175.448 L818.256,177.688 C819.664007,176.45066 821.221325,175.480004 822.928,174.776 C824.634675,174.071996 826.405324,173.72 828.24,173.72 L831.312,173.72 C831.781336,173.72 832.186665,173.890665 832.528,174.232 C832.869335,174.573335 833.04,174.978664 833.04,175.448 L833.04,185.432 C833.04,185.901336 832.869335,186.306665 832.528,186.648 C832.186665,186.989335 831.781336,187.16 831.312,187.16 L823.056,187.16 C820.495987,187.16 819.216,188.439987 819.216,191 L819.216,205.272 C819.216,205.741336 819.045335,206.146665 818.704,206.488 C818.362665,206.829335 817.957336,207 817.488,207 L805.328,207 C804.858664,207 804.453335,206.829335 804.112,206.488 Z M842.352,218.776 C842.074665,218.519999 841.936,218.200002 841.936,217.816 C841.936,217.773333 841.925333,217.688001 841.904,217.56 C841.882667,217.431999 841.914666,217.304001 842,217.176 L847.12,204.888 L834.768,175.704 C834.725333,175.575999 834.704,175.426668 834.704,175.256 C834.789334,174.829331 834.981332,174.466668 835.28,174.168 C835.578668,173.869332 835.919998,173.72 836.304,173.72 L847.12,173.72 C848.101338,173.72 848.783998,174.231995 849.168,175.256 L854.416,189.848 L859.856,175.256 C860.282669,174.231995 861.007995,173.72 862.032,173.72 L872.72,173.72 C873.104002,173.72 873.445332,173.858665 873.744,174.136 C874.042668,174.413335 874.192,174.722665 874.192,175.064 C874.192,175.320001 874.170667,175.533332 874.128,175.704 L856.08,217.624 C855.653331,218.648005 854.906672,219.16 853.84,219.16 L843.344,219.16 C842.959998,219.16 842.629335,219.032001 842.352,218.776 Z" id="Culture-&amp;-History" fill="#F8C051"></path>
    </g>
</svg>